{"title":"What We Do in the Shadows 2014 1080p.BluRay.5.1.x264 . NVEE","uid":11955642,"size":1964471594,"categoryP":"video","categoryS":"hd___movies","magnet":"?xt=urn:btih:e58346bccd9928073ef4cdbd1b707b48f3ffa44f&amp;dn=What+We+Do+in+the+Shadows+2014+1080p.BluRay.5.1.x264+.+NVEE&amp;tr=udp%3A%2F%2Ftracker.openbittorrent.com%3A80&amp;tr=udp%3A%2F%2Fopen.demonii.com%3A1337&amp;tr=udp%3A%2F%2Ftracker.coppersurfer.tk%3A6969&amp;tr=udp%3A%2F%2Fexodus.desync.com%3A6969","seeders":1,"leechers":0,"uploader":".NVEE","files":4,"time":1432396846,"description":"Quick note : \n\nTrackers refresh never most current &amp; so if, \nYou require a torrent release I have posted in the past, not seeding,... \nPlease do not hesitate to inform me in any means you find fit to do so. \nTorrent requests also &quot;Always Welcome.&quot; \n\n \nFULL_INFOs \n\n99.99% &gt;&gt;&gt; SYNCED GUARANTEED \n\n&quot;Totally scrutinized / analyzed to be a verified torrent.&quot; \n___________________________________________ \n\nSource : Blu-ray ~ 1080p \n\n \n\nSpoken Language : English \n\nAudio : 6 ~ Channels Only \n\n \nSubs Info : \n\nx3 ~ Multisubs .srt \nAll .srt UTF-8 .idx &amp; .ass subs can be turned On/Off \n_____________________________________ \n--------------------------------------------------------------------------------- \n \nGeneral Metadata \n\nComplete name : What We Do in the Shadows 2014 1080p.BluRay.5.1.x264 . NVEE.mp4 \nFormat : MPEG-4 \nFormat profile : Base Media \nCodec ID : isom \nFile size : 1.83 GiB \nDuration : 1h 25mn \nOverall bit rate : 3 067 Kbps \nEncoded date : UTC 2015-05-17 11:09:06 \nTagged date : UTC 2015-05-17 11:09:06 \n\n \nVideo \n\nID : 1 \nFormat : AVC \nFormat/Info : Advanced Video Codec \nFormat profile : &lt;a class=&quot;__cf_email__&quot; href=&quot;/cdn-cgi/l/email-protection&quot; data-cfemail=&quot;6028090708202c554e51&quot;&gt;[email&amp;#160;protected]&lt;/a&gt;&lt;script data-cfhash='f9e31' type=&quot;text/javascript&quot;&gt;\n/* &lt;![CDATA[ */!function(){try{var t=&quot;currentScript&quot;in document?document.currentScript:function(){for(var t=document.getElementsByTagName(&quot;script&quot;),e=t.length;e--;)if(t[e].getAttribute(&quot;data-cfhash&quot;))return t[e]}();if(t&amp;&amp;t.previousSibling){var e,r,n,i,c=t.previousSibling,a=c.getAttribute(&quot;data-cfemail&quot;);if(a){for(e=&quot;&quot;,r=parseInt(a.substr(0,2),16),n=2;a.length-n;n+=2)i=parseInt(a.substr(n,2),16)^r,e+=String.fromCharCode(i);e=document.createTextNode(e),c.parentNode.replaceChild(e,c)}t.parentNode.removeChild(t);}}catch(u){}}()/* ]]&gt; */&lt;/script&gt; \nFormat settings, CABAC : Yes \nFormat settings, ReFrames : 5 frames \nCodec ID : avc1 \nCodec ID/Info : Advanced Video Coding \nDuration : 1h 25mn \nBit rate : 2 425 Kbps \nMaximum bit rate : 16.9 Mbps \nWidth : 1 920 pixels \nHeight : 1 040 pixels \nDisplay aspect ratio : 1.85:1 \nFrame rate mode : Constant \nFrame rate : 24.000 fps \nColor space : YUV \nChroma subsampling : 4:2:0 \nBit depth : 8 bits \nScan type : Progressive \nBits/(Pixel*Frame) : 0.051 \nStream size : 1.45 GiB (79%) \nWriting library : x264 core 146 r2538 121396c \nEncoded from Physical Blu-ray / Region B \n\n \nAudio \n\nID : 2 \nFormat : AC-3 \nFormat/Info : Audio Coding 3 \nMode extension : CM (complete main) \nFormat settings, Endianness : Big \nCodec ID : ac-3 \nDuration : 1h 25mn \nBit rate mode : Constant \nBit rate : 640 Kbps \nMaximum bit rate : 676 Kbps \nChannel(s) : 6 channels \nChannel positions : Front: L C R, Side: L R, LFE \nSampling rate : 48.0 KHz \nBit depth : 16 bits \nCompression mode : Lossy \nStream size : 391 MiB (21%) \nEncoded date : UTC 2015-05-17 11:15:26 \nTagged date : UTC 2015-05-17 11:17:47 \nEncoded from Physical Blu-ray 6 Channel audio &quot;Always&quot;. \n\n \n\n \n\n \n\n\n\n\nEnj0y !","torrent":{"xt":"urn:btih:e58346bccd9928073ef4cdbd1b707b48f3ffa44f","amp;dn":"What+We+Do+in+the+Shadows+2014+1080p.BluRay.5.1.x264+.+NVEE","amp;tr":["udp%3A%2F%2Ftracker.openbittorrent.com%3A80","udp%3A%2F%2Fopen.demonii.com%3A1337","udp%3A%2F%2Ftracker.coppersurfer.tk%3A6969","udp%3A%2F%2Fexodus.desync.com%3A6969"],"infoHash":"e58346bccd9928073ef4cdbd1b707b48f3ffa44f","infoHashBuffer":{"type":"Buffer","data":[229,131,70,188,205,153,40,7,62,244,205,189,27,112,123,72,243,255,164,79]},"announce":[],"urlList":[]}}